<svg width="24" height="25" viewBox="0 0 24 25" fill="none" xmlns="http://www.w3.org/2000/svg">
<path fill-rule="evenodd" clip-rule="evenodd" d="M16.4109 3.26862L16.4119 4.01824C19.1665 4.23413 20.9862 6.11119 20.9891 8.98975L21 17.4155C21.0039 20.554 19.0322 22.485 15.8718 22.49L8.15188 22.5C5.01119 22.504 3.01482 20.527 3.01087 17.3795L3.00001 9.05272C2.99606 6.15517 4.75153 4.28311 7.50617 4.03024L7.50518 3.28061C7.5042 2.84083 7.83001 2.51 8.26444 2.51C8.69886 2.509 9.02468 2.83883 9.02567 3.27861L9.02666 3.97826L14.8914 3.97027L14.8904 3.27062C14.8894 2.83084 15.2152 2.501 15.6497 2.5C16.0742 2.499 16.4099 2.82884 16.4109 3.26862ZM4.52148 9.36157L19.4696 9.34158V8.99175C19.4272 6.84283 18.349 5.71539 16.4138 5.54748L16.4148 6.31709C16.4148 6.74688 16.0801 7.0877 15.6556 7.0877C15.2212 7.0887 14.8943 6.74887 14.8943 6.31909L14.8934 5.50949L9.02863 5.51749L9.02962 6.32609C9.02962 6.75687 8.70479 7.0967 8.27036 7.0967C7.83594 7.0977 7.50913 6.75887 7.50913 6.32809L7.50815 5.55847C5.58286 5.75137 4.51753 6.88281 4.52049 9.05072L4.52148 9.36157ZM15.2399 13.9043V13.9153C15.2498 14.3751 15.625 14.7239 16.0801 14.7139C16.5244 14.7029 16.8789 14.3221 16.869 13.8623C16.8483 13.4225 16.4918 13.0637 16.0485 13.0647C15.5944 13.0747 15.2389 13.4445 15.2399 13.9043ZM16.0554 18.392C15.6013 18.382 15.235 18.0032 15.234 17.5435C15.2241 17.0837 15.5884 16.7029 16.0426 16.6919H16.0525C16.5165 16.6919 16.8927 17.0707 16.8927 17.5405C16.8937 18.0102 16.5185 18.391 16.0554 18.392ZM11.1721 13.9203C11.1919 14.3801 11.568 14.7389 12.0222 14.7189C12.4665 14.6979 12.821 14.3181 12.8012 13.8583C12.7904 13.4085 12.425 13.0587 11.9807 13.0597C11.5266 13.0797 11.1711 13.4605 11.1721 13.9203ZM12.0262 18.3471C11.572 18.3671 11.1968 18.0082 11.1761 17.5485C11.1761 17.0887 11.5305 16.7089 11.9847 16.6879C12.429 16.6869 12.7953 17.0367 12.8052 17.4855C12.8259 17.9463 12.4705 18.3261 12.0262 18.3471ZM7.10433 13.9553C7.12408 14.415 7.50025 14.7749 7.95442 14.7539C8.39872 14.7339 8.75317 14.3531 8.73243 13.8933C8.72256 13.4435 8.35725 13.0937 7.91196 13.0947C7.45779 13.1147 7.10334 13.4955 7.10433 13.9553ZM7.95837 18.3521C7.5042 18.3731 7.12901 18.0132 7.10828 17.5535C7.10729 17.0937 7.46273 16.7129 7.9169 16.6929C8.3612 16.6919 8.7275 17.0417 8.73737 17.4915C8.7581 17.9513 8.40365 18.3321 7.95837 18.3521Z" fill="#A4A8AB"/>
</svg>
