<svg width="20" height="20" viewBox="0 0 20 20" fill="none" xmlns="http://www.w3.org/2000/svg">
<path d="M6.52542 8.38542C6.98948 8.38542 7.36611 8.01208 7.36611 7.55208V4.30208C7.36611 2.84917 8.55863 1.66667 10.0244 1.66667C11.4901 1.66667 12.683 2.84917 12.683 4.30208V7.55208C12.683 8.01208 13.0593 8.38542 13.5237 8.38542C13.9878 8.38542 14.3644 8.01208 14.3644 7.55208V4.30208C14.3648 1.93 12.4178 0 10.0244 0C7.63177 0 5.68474 1.93 5.68474 4.30208V7.55208C5.68474 8.01208 6.06137 8.38542 6.52542 8.38542Z" fill="white"/>
<path d="M19.6679 6.51292H15.2055V7.55209C15.2055 8.47125 14.4514 9.21875 13.5242 9.21875C12.5969 9.21875 11.8428 8.47125 11.8428 7.55209V6.51292H8.20722V7.55209C8.20722 8.47125 7.45312 9.21875 6.52585 9.21875C5.59857 9.21875 4.84447 8.47125 4.84447 7.55209V6.51292H0.332076C0.100046 6.51292 -0.0432914 6.69417 0.0117736 6.9175L2.95334 18.7913C3.13073 19.4587 3.83943 20 4.53552 20H15.4645C16.1614 20 16.8692 19.4587 17.0475 18.7913L19.9882 6.9175C20.0433 6.69375 19.9004 6.51292 19.6679 6.51292Z" fill="white"/>
</svg>
