<svg width="17" height="16" viewBox="0 0 17 16" fill="none" xmlns="http://www.w3.org/2000/svg">
<path d="M8.75 1.5C7.46442 1.5 6.20772 1.88122 5.1388 2.59545C4.06988 3.30968 3.23676 4.32484 2.74479 5.51256C2.25282 6.70028 2.12409 8.00721 2.3749 9.26809C2.6257 10.529 3.24477 11.6872 4.15381 12.5962C5.06285 13.5052 6.22104 14.1243 7.48192 14.3751C8.74279 14.6259 10.0497 14.4972 11.2374 14.0052C12.4252 13.5132 13.4403 12.6801 14.1546 11.6112C14.8688 10.5423 15.25 9.28558 15.25 8C15.248 6.2767 14.5626 4.62456 13.344 3.40601C12.1254 2.18745 10.4733 1.50199 8.75 1.5ZM12.25 8.5H8.75C8.68433 8.50004 8.6193 8.48713 8.55862 8.46202C8.49794 8.4369 8.4428 8.40007 8.39637 8.35364C8.34993 8.3072 8.3131 8.25207 8.28799 8.19139C8.26287 8.13071 8.24997 8.06567 8.25 8V4.5C8.25 4.36739 8.30268 4.24021 8.39645 4.14645C8.49022 4.05268 8.61739 4 8.75 4C8.88261 4 9.00979 4.05268 9.10356 4.14645C9.19732 4.24021 9.25 4.36739 9.25 4.5V7.5H12.25C12.3826 7.5 12.5098 7.55268 12.6036 7.64645C12.6973 7.74021 12.75 7.86739 12.75 8C12.75 8.13261 12.6973 8.25979 12.6036 8.35355C12.5098 8.44732 12.3826 8.5 12.25 8.5Z" fill="#58616C"/>
</svg>
