<svg width="25" height="24" viewBox="0 0 25 24" fill="none" xmlns="http://www.w3.org/2000/svg">
<path fill-rule="evenodd" clip-rule="evenodd" d="M8.17 1.99921H16.84C20.23 1.99921 22.5 4.37921 22.5 7.91921V16.0902C22.5 19.6202 20.23 21.9992 16.84 21.9992H8.17C4.78 21.9992 2.5 19.6202 2.5 16.0902V7.91921C2.5 4.37921 4.78 1.99921 8.17 1.99921ZM15.51 14.9992C15.85 14.6602 15.85 14.1102 15.51 13.7702L13.73 11.9902L15.51 10.2092C15.85 9.87021 15.85 9.31021 15.51 8.97021C15.17 8.62921 14.62 8.62921 14.27 8.97021L12.5 10.7492L10.72 8.97021C10.37 8.62921 9.82 8.62921 9.48 8.97021C9.14 9.31021 9.14 9.87021 9.48 10.2092L11.26 11.9902L9.48 13.7602C9.14 14.1102 9.14 14.6602 9.48 14.9992C9.65 15.1692 9.88 15.2602 10.1 15.2602C10.33 15.2602 10.55 15.1692 10.72 14.9992L12.5 13.2302L14.28 14.9992C14.45 15.1802 14.67 15.2602 14.89 15.2602C15.12 15.2602 15.34 15.1692 15.51 14.9992Z" fill="white"/>
</svg>
