<svg width="14" height="20" viewBox="0 0 14 20" fill="none" xmlns="http://www.w3.org/2000/svg">
<path d="M13.6975 10.0848L7.84815 19.5303C7.75744 19.6751 7.63167 19.7934 7.48306 19.8738C7.33445 19.9542 7.16804 19.9939 7 19.9891C6.90957 20.0036 6.81746 20.0036 6.72703 19.9891C6.51798 19.9269 6.33528 19.7949 6.20807 19.6141C6.08086 19.4334 6.01645 19.2142 6.02511 18.9917V13.0072H1.95007C1.60102 13.0073 1.25836 12.9115 0.957859 12.7298C0.657356 12.5481 0.410032 12.2872 0.241705 11.9744C0.073378 11.6615 -0.00977913 11.3082 0.000915646 10.9513C0.0116104 10.5943 0.115765 10.2469 0.302505 9.94516L6.15185 0.4997C6.26116 0.305474 6.43122 0.154576 6.63462 0.0713383C6.83802 -0.0118993 7.06289 -0.0226247 7.27297 0.0408919C7.48202 0.103084 7.66472 0.23508 7.79193 0.415844C7.91914 0.596607 7.98355 0.815734 7.97489 1.0383V7.02276H12.0499C12.399 7.0227 12.7416 7.11851 13.0421 7.30019C13.3426 7.48186 13.59 7.74274 13.7583 8.05558C13.9266 8.36842 14.0098 8.72175 13.9991 9.0787C13.9884 9.43564 13.8842 9.7831 13.6975 10.0848Z" fill="white"/>
</svg>
