<svg width="22" height="21" viewBox="0 0 22 21" fill="none" xmlns="http://www.w3.org/2000/svg">
<path d="M11 21C7.8411 21 4.68922 21 1.53031 21C0.821315 21 0.238673 20.5671 0.0561583 19.9039C0.0210594 19.7642 0 19.6176 0 19.471C0 17.572 0 15.6729 0 13.7739C0 13.1874 0.400128 12.7895 0.989789 12.7895C2.07786 12.7895 3.16592 12.7895 4.25399 12.7895C4.90683 12.7895 5.55265 12.7895 6.20549 12.7895C6.50734 12.7895 6.64773 12.6498 6.64773 12.3496C6.64773 11.5258 6.64773 10.7019 6.64773 9.87808C6.64773 9.45918 6.82323 9.145 7.20932 8.97045C7.32865 8.9146 7.47607 8.88667 7.60944 8.88667C9.86981 8.88667 12.1302 8.88667 14.3906 8.88667C14.9592 8.88667 15.3523 9.29859 15.3523 9.87808C15.3523 10.7927 15.3523 11.7073 15.3523 12.6219C15.3523 13.5435 15.3523 14.4651 15.3523 15.3867C15.3523 15.7078 15.4927 15.8475 15.8086 15.8475C17.5424 15.8475 19.2693 15.8475 21.0032 15.8475C21.4595 15.8475 21.8105 16.0779 21.9438 16.4758C21.9789 16.5875 22 16.7132 22 16.8249C22 17.7046 22 18.5843 22 19.464C22 20.3437 21.3401 21 20.4556 21C17.3038 21 14.1519 21 11 21Z" fill="white"/>
<path d="M13.1551 6.71535C13.0779 6.68742 12.9936 6.66648 12.9234 6.63157C12.404 6.35928 11.8845 6.09397 11.365 5.8147C11.2738 5.76583 11.2106 5.77281 11.1264 5.8147C10.6069 6.09397 10.0804 6.36626 9.56094 6.63855C9.37843 6.73629 9.19592 6.72233 9.06254 6.59666C8.95022 6.49891 8.90108 6.37324 8.92916 6.22663C9.02744 5.63318 9.13274 5.03973 9.23803 4.44628C9.25207 4.34854 9.23803 4.27872 9.16784 4.2089C8.73963 3.79698 8.32546 3.38506 7.90428 2.97313C7.74282 2.81255 7.71474 2.6031 7.82004 2.42856C7.89024 2.31685 7.99553 2.25401 8.12189 2.24005C8.72559 2.14929 9.32929 2.06551 9.93299 1.98172C10.0032 1.97474 10.0383 1.93983 10.0734 1.88398C10.3401 1.3394 10.6069 0.801809 10.8736 0.264215C10.986 0.0407991 11.1966 -0.0499635 11.4071 0.0268357C11.5265 0.0687262 11.6037 0.159489 11.6528 0.271197C11.9126 0.808791 12.1793 1.3394 12.4391 1.877C12.4742 1.9538 12.5163 1.98172 12.6005 1.98871C13.1972 2.07249 13.7939 2.15627 14.3906 2.24703C14.5661 2.27496 14.6854 2.36572 14.7415 2.54026C14.7907 2.70783 14.7556 2.85444 14.6292 2.98011C14.201 3.39902 13.7728 3.81792 13.3376 4.23683C13.2744 4.29966 13.2604 4.35552 13.2744 4.4393C13.3797 5.03973 13.485 5.64016 13.5833 6.24059C13.6254 6.49193 13.4288 6.72233 13.1621 6.73629L13.1551 6.71535Z" fill="white"/>
</svg>
