<svg width="26" height="20" viewBox="0 0 26 20" fill="none" xmlns="http://www.w3.org/2000/svg">
<path d="M15.3132 8.31C14.8832 9.29 14.4532 10.26 14.0232 11.24C14.2732 11.24 14.5032 11.24 14.7332 11.24C15.4732 11.24 16.2232 11.24 16.9632 11.24C17.4432 11.24 17.8332 11.43 18.1132 11.81C19.4932 13.71 20.8632 15.61 22.2432 17.51C22.4732 17.82 22.5332 18.16 22.3932 18.53C22.1232 19.22 21.2532 19.41 20.7132 18.88C20.2232 18.4 19.7432 17.91 19.2632 17.42C18.3132 16.43 17.3732 15.44 16.4332 14.45C16.3532 14.37 16.2832 14.35 16.1732 14.35C15.2232 14.42 14.2732 14.49 13.3232 14.55C12.5832 14.6 11.8332 14.64 11.0932 14.69C11.0132 14.69 10.9232 14.75 10.8732 14.81C9.76323 16.15 8.66323 17.5 7.55323 18.85C7.00323 19.52 6.26323 19.66 5.53323 19.18C3.85323 18.09 2.17323 17 0.503229 15.91C0.153229 15.68 -0.026771 15.36 0.00322901 14.95C0.063229 14.22 0.773229 13.78 1.46323 14.07C2.27323 14.4 3.08323 14.75 3.88323 15.11C4.51323 15.39 5.14323 15.68 5.78323 15.96C5.81323 15.91 5.85323 15.86 5.88323 15.82C6.66323 14.64 7.43323 13.45 8.21323 12.27C8.24323 12.22 8.28323 12.16 8.30323 12.11C9.09323 10.18 9.87323 8.25 10.6532 6.32C10.6632 6.29 10.6832 6.25 10.6932 6.21C10.5332 6.12 10.3632 6.03 10.2032 5.94C9.62323 5.62 9.04323 5.3 8.45323 4.98C8.38323 4.94 8.28323 4.93 8.21323 4.95C7.06323 5.29 5.91323 5.64 4.76323 5.99C4.06323 6.2 3.37323 5.7 3.40323 4.98C3.42323 4.57 3.62323 4.25 4.00323 4.08C5.35323 3.47 6.70323 2.87 8.06323 2.27C8.37323 2.13 8.67323 2.15 8.98323 2.29C10.1832 2.82 11.3732 3.35 12.5732 3.88C14.6532 4.8 16.7432 5.73 18.8232 6.66C18.9232 6.7 19.0032 6.71 19.1032 6.66C20.6832 6.03 22.2632 5.4 23.8532 4.77C24.3932 4.55 24.9732 4.77 25.2132 5.28C25.4532 5.79 25.2432 6.38 24.7232 6.64C22.9932 7.53 21.2532 8.41 19.5132 9.3C19.1832 9.47 18.8532 9.49 18.5032 9.37C17.4932 9.03 16.4832 8.7 15.4732 8.37C15.4332 8.36 15.3832 8.34 15.3232 8.32L15.3132 8.31Z" fill="white"/>
<path d="M17.0632 0C18.3232 0 19.3432 1.03 19.3432 2.29C19.3432 3.54 18.3232 4.56 17.0632 4.57C15.7932 4.57 14.7632 3.55 14.7632 2.28C14.7732 1.02 15.8032 0 17.0632 0Z" fill="white"/>
</svg>
