<svg width="24" height="25" viewBox="0 0 24 25" fill="none" xmlns="http://www.w3.org/2000/svg">
<path fill-rule="evenodd" clip-rule="evenodd" d="M20.4023 14.0801C20.76 14.2701 21.036 14.5701 21.2301 14.8701C21.6083 15.4901 21.5776 16.2501 21.2097 16.9201L20.4943 18.1201C20.1162 18.7601 19.411 19.1601 18.6855 19.1601C18.3278 19.1601 17.9292 19.0601 17.6022 18.8601C17.3365 18.6901 17.0299 18.6301 16.7029 18.6301C15.6911 18.6301 14.8429 19.4601 14.8122 20.4501C14.8122 21.6001 13.872 22.5001 12.6968 22.5001H11.3069C10.1215 22.5001 9.18125 21.6001 9.18125 20.4501C9.16081 19.4601 8.31259 18.6301 7.30085 18.6301C6.96361 18.6301 6.65702 18.6901 6.40153 18.8601C6.0745 19.0601 5.66572 19.1601 5.31825 19.1601C4.58245 19.1601 3.87729 18.7601 3.49917 18.1201L2.79402 16.9201C2.4159 16.2701 2.39546 15.4901 2.77358 14.8701C2.93709 14.5701 3.24368 14.2701 3.59115 14.0801C3.87729 13.9401 4.06125 13.7101 4.23498 13.4401C4.74596 12.5801 4.43937 11.4501 3.57071 10.9401C2.55897 10.3701 2.23194 9.1001 2.81446 8.1101L3.49917 6.9301C4.09191 5.9401 5.35913 5.5901 6.38109 6.1701C7.27019 6.6501 8.425 6.3301 8.9462 5.4801C9.10972 5.2001 9.20169 4.9001 9.18125 4.6001C9.16081 4.2101 9.27323 3.8401 9.4674 3.5401C9.84553 2.9201 10.5302 2.5201 11.2763 2.5001H12.7172C13.4735 2.5001 14.1582 2.9201 14.5363 3.5401C14.7203 3.8401 14.8429 4.2101 14.8122 4.6001C14.7918 4.9001 14.8838 5.2001 15.0473 5.4801C15.5685 6.3301 16.7233 6.6501 17.6226 6.1701C18.6344 5.5901 19.9118 5.9401 20.4943 6.9301L21.179 8.1101C21.7718 9.1001 21.4447 10.3701 20.4228 10.9401C19.5541 11.4501 19.2475 12.5801 19.7687 13.4401C19.9322 13.7101 20.1162 13.9401 20.4023 14.0801ZM9.10972 12.5101C9.10972 14.0801 10.4076 15.3301 12.0121 15.3301C13.6165 15.3301 14.8838 14.0801 14.8838 12.5101C14.8838 10.9401 13.6165 9.6801 12.0121 9.6801C10.4076 9.6801 9.10972 10.9401 9.10972 12.5101Z" fill="#A4A8AB"/>
</svg>
