<svg width="28" height="24" viewBox="0 0 28 24" fill="none" xmlns="http://www.w3.org/2000/svg">
<path fill-rule="evenodd" clip-rule="evenodd" d="M2.89058 17.0028C1.47997 14.5613 0.774658 13.3406 0.774658 12C0.774658 10.6594 1.47996 9.43867 2.89058 6.99723L4.04614 4.99722C5.45525 2.55837 6.15981 1.33894 7.3198 0.669472C8.47979 0 9.88812 0 12.7048 0H15.2954C18.1121 0 19.5204 0 20.6804 0.669472C21.8404 1.33894 22.5449 2.55837 23.954 4.99722L25.105 6.98921C26.5177 9.4344 27.2241 10.657 27.2232 11.9995C27.2223 13.3419 26.5142 14.5635 25.098 17.0068L23.9341 19.0148C22.5238 21.4479 21.8186 22.6645 20.6598 23.3323C19.5009 24 18.0948 24 15.2824 24H12.7048C9.88812 24 8.47979 24 7.3198 23.3305C6.15981 22.6611 5.45525 21.4416 4.04614 19.0028L2.89058 17.0028ZM8.75009 12C8.75009 14.9 11.1001 17.25 14.0001 17.25C16.9001 17.25 19.2501 14.9 19.2501 12C19.2501 9.1 16.9001 6.75 14.0001 6.75C11.1001 6.75 8.75009 9.1 8.75009 12Z" fill="white"/>
</svg>
