<svg width="30" height="18" viewBox="0 0 30 18" fill="none" xmlns="http://www.w3.org/2000/svg">
<path d="M18.5303 17.73C16.8103 17.73 15.0903 17.72 13.3603 17.73C12.6803 17.73 12.1303 17.52 11.6403 17.07C11.3403 16.79 11.0303 16.52 10.7003 16.28C9.87032 15.69 8.50032 15.68 7.65032 16.47C7.44032 16.67 7.22032 16.86 7.01032 17.06C6.55032 17.5 6.01032 17.73 5.36032 17.73C4.42032 17.72 3.49032 17.75 2.55032 17.71C1.26032 17.66 0.310325 16.9 0.130325 15.63C0.000324547 14.69 0.220325 13.84 0.890325 13.14C0.980325 13.05 0.950325 12.98 0.910325 12.89C0.540325 12 0.430325 11.06 0.490325 10.11C0.570325 8.96001 0.880324 7.86001 1.37032 6.82001C1.64032 6.24001 1.96032 5.67001 2.29032 5.12001C2.81032 4.25001 3.74032 4.02001 4.64032 4.50001C5.14032 4.77001 5.64032 5.06001 6.15032 5.31001C6.94032 5.70001 7.76032 6.00001 8.63032 6.15001C9.77032 6.34001 10.8603 6.24001 11.8703 5.63001C11.9803 5.56001 12.0103 5.51001 11.9603 5.39001C11.6203 4.51001 11.3603 3.61001 11.2303 2.68001C11.1703 2.18001 11.1403 1.69001 11.2803 1.19001C11.5203 0.350005 12.2803 0.0200055 13.0203 0.490005C14.0603 1.15001 15.0903 1.83001 16.1003 2.53001C19.7703 5.07001 23.3703 7.71001 26.9503 10.37C27.5903 10.84 28.2503 11.29 28.7903 11.89C29.2203 12.36 29.5803 12.88 29.7903 13.49C30.1803 14.61 29.8703 15.63 28.9403 16.35C28.3003 16.85 27.5603 17.13 26.7803 17.32C25.6203 17.61 24.4303 17.7 23.2403 17.7C21.6703 17.7 20.1003 17.7 18.5303 17.7V17.73ZM17.9503 7.54001C16.5203 9.41001 15.1103 11.26 13.6703 13.14C13.7703 13.14 13.8303 13.15 13.8903 13.15C14.3703 13.15 14.8603 13.15 15.3403 13.15C15.4703 13.15 15.5603 13.11 15.6403 13C16.7403 11.49 17.8503 9.99001 18.9603 8.49001C19.0003 8.44001 19.0403 8.39001 19.0903 8.33001C19.8803 8.89001 20.6603 9.44001 21.4503 9.99001C20.6803 11.04 19.9103 12.08 19.1303 13.14C19.2203 13.14 19.2703 13.15 19.3203 13.15C19.6503 13.15 19.9903 13.15 20.3203 13.15C21.5103 13.14 22.6903 13.19 23.8703 13.04C24.3303 12.98 24.7803 12.89 25.1903 12.66C25.6403 12.4 25.7603 12.03 25.5303 11.57C25.2703 11.05 24.8503 10.65 24.3903 10.31C22.9003 9.22001 21.4203 8.12001 19.9203 7.04001C17.6103 5.37001 15.2903 3.71001 12.9103 2.15001C12.8403 2.11001 12.7703 2.06001 12.6903 2.01001C12.6903 2.07001 12.6803 2.11001 12.6903 2.14001C12.7503 2.53001 12.7703 2.94001 12.8803 3.32001C13.0403 3.93001 13.2503 4.53001 13.4603 5.13001C13.6903 5.80001 13.5603 6.26001 12.9903 6.67001C12.6003 6.95001 12.1803 7.18001 11.7303 7.34001C10.5003 7.80001 9.24032 7.79001 7.97032 7.50001C6.62033 7.19001 5.38032 6.61001 4.19032 5.91001C4.09032 5.85001 3.99032 5.79001 3.89032 5.74001C3.76032 5.68001 3.66032 5.71001 3.58032 5.83001C2.74032 7.15001 2.09032 8.54 1.97032 10.13C1.89032 11.13 2.10032 12.07 2.60032 12.94C2.68032 13.07 2.76032 13.12 2.92032 13.12C5.22032 13.12 7.53032 13.12 9.83032 13.12C9.98032 13.12 10.0703 13.07 10.1703 12.95C11.9403 10.63 13.7103 8.31001 15.4803 5.99001C15.5203 5.94001 15.5603 5.89001 15.6003 5.84001C16.3903 6.40001 17.1703 6.94001 17.9603 7.50001L17.9503 7.54001Z" fill="white"/>
</svg>
