<svg width="24" height="25" viewBox="0 0 24 25" fill="none" xmlns="http://www.w3.org/2000/svg">
<path d="M17.9185 14.8201C17.6595 15.0711 17.5405 15.4341 17.5995 15.7901L18.4885 20.7101C18.5635 21.1271 18.3875 21.5491 18.0385 21.7901C17.6965 22.0401 17.2415 22.0701 16.8685 21.8701L12.4395 19.5601C12.2855 19.4781 12.1145 19.4341 11.9395 19.4291H11.6685C11.5745 19.4431 11.4825 19.4731 11.3985 19.5191L6.96851 21.8401C6.74951 21.9501 6.50151 21.9891 6.25851 21.9501C5.66651 21.8381 5.27151 21.2741 5.36851 20.6791L6.25851 15.7591C6.31751 15.4001 6.19851 15.0351 5.93951 14.7801L2.32851 11.2801C2.02651 10.9871 1.92151 10.5471 2.05951 10.1501C2.19351 9.7541 2.53551 9.4651 2.94851 9.4001L7.91851 8.6791C8.29651 8.6401 8.62851 8.4101 8.79851 8.0701L10.9885 3.5801C11.0405 3.4801 11.1075 3.3881 11.1885 3.3101L11.2785 3.2401C11.3255 3.1881 11.3795 3.1451 11.4395 3.1101L11.5485 3.0701L11.7185 3.0001H12.1395C12.5155 3.0391 12.8465 3.2641 13.0195 3.6001L15.2385 8.0701C15.3985 8.3971 15.7095 8.6241 16.0685 8.6791L21.0385 9.4001C21.4585 9.4601 21.8095 9.7501 21.9485 10.1501C22.0795 10.5511 21.9665 10.9911 21.6585 11.2801L17.9185 14.8201Z" fill="#A4A8AB"/>
</svg>
