<svg width="25" height="24" viewBox="0 0 25 24" fill="none" xmlns="http://www.w3.org/2000/svg">
<g id="Iconly/Bold/Tick Square">
<g id="Tick Square">
<path id="Tick Square_2" fill-rule="evenodd" clip-rule="evenodd" d="M8.17 1.9999H16.84C20.23 1.9999 22.5 4.3799 22.5 7.9199V16.0909C22.5 19.6199 20.23 21.9999 16.84 21.9999H8.17C4.78 21.9999 2.5 19.6199 2.5 16.0909V7.9199C2.5 4.3799 4.78 1.9999 8.17 1.9999ZM11.93 14.9899L16.68 10.2399C17.02 9.8999 17.02 9.3499 16.68 8.9999C16.34 8.6599 15.78 8.6599 15.44 8.9999L11.31 13.1299L9.56 11.3799C9.22 11.0399 8.66 11.0399 8.32 11.3799C7.98 11.7199 7.98 12.2699 8.32 12.6199L10.7 14.9899C10.87 15.1599 11.09 15.2399 11.31 15.2399C11.54 15.2399 11.76 15.1599 11.93 14.9899Z" fill="white"/>
</g>
</g>
</svg>
